# xmcd
#
# Track frame offsets: 
#        150
#        13162
#        21863
#        37942
#        49975
#        66696
#        83979
#        94095
#        104371
#        117417
#        133768
#        146518
#        158399
#        175166
#        191353
#        203539
#
# Disc length: 2945 seconds
#
# Revision: 0
# Processed by: cddbd v1.5.2PL0 Copyright (c) Steve Scherf et al.
# Submitted via: ExactAudioCopy v0.95b1
#
DISCID=d80b7f10
DTITLE=Kukerpillid - Kaunimad laulud CD1
DYEAR=2012
DGENRE=Country
TTITLE0=Kaunimad laulud
TTITLE1=Laul päikesest
TTITLE2=Tahan lennata
TTITLE3=Ülikond
TTITLE4=Vanad majad
TTITLE5=Oma tee
TTITLE6=Kotkapojad
TTITLE7=Ebakorrektne lauluke ametitest
TTITLE8=Püksibugi
TTITLE9=Ilusal suisel
TTITLE10=Nähtamatu müür
TTITLE11=Väiksed kastid
TTITLE12=Kassitapp
TTITLE13=Mees lõhkus puid
TTITLE14=Laadasõit
TTITLE15=Mu kodu
EXTD=
EXTT0=
EXTT1=
EXTT2=
EXTT3=
EXTT4=
EXTT5=
EXTT6=
EXTT7=
EXTT8=
EXTT9=
EXTT10=
EXTT11=
EXTT12=
EXTT13=
EXTT14=
EXTT15=
PLAYORDER=
